<svg class="svg" xmlns="http://www.w3.org/2000/svg">
	<symbol id="icon-google" viewBox="0 0 32 32">
		<path d="M16.319 13.713v5.487h9.075c-0.369 2.356-2.744 6.9-9.075 6.9-5.463 0-9.919-4.525-9.919-10.1s4.456-10.1 9.919-10.1c3.106 0 5.188 1.325 6.375 2.469l4.344-4.181c-2.788-2.612-6.4-4.188-10.719-4.188-8.844 0-16 7.156-16 16s7.156 16 16 16c9.231 0 15.363-6.494 15.363-15.631 0-1.050-0.113-1.85-0.25-2.65l-15.113-0.006z"></path>
	</symbol>
	<symbol id="icon-google-logo" viewBox="0 0 99 32">
<path d="M13.053 25.1c-6.58 0-12.113-5.36-12.113-11.94s5.533-11.94 12.113-11.94c3.64 0 6.233 1.427 8.18 3.293l-2.3 2.3c-1.4-1.313-3.287-2.327-5.88-2.327-4.807 0-8.56 3.873-8.56 8.68s3.76 8.68 8.56 8.68c3.113 0 4.893-1.253 6.027-2.387 0.933-0.933 1.547-2.273 1.773-4.107h-7.8v-3.26h10.98c0.12 0.58 0.173 1.28 0.173 2.040 0 2.447-0.673 5.473-2.827 7.627-2.093 2.173-4.773 3.34-8.327 3.34zM41.187 17.413c0 4.427-3.4 7.687-7.573 7.687s-7.573-3.26-7.573-7.687c0-4.453 3.4-7.687 7.573-7.687s7.573 3.227 7.573 7.687zM37.867 17.413c0-2.767-1.973-4.66-4.26-4.66s-4.26 1.893-4.26 4.66c0 2.74 1.973 4.66 4.26 4.66s4.26-1.927 4.26-4.66zM58.167 17.413c0 4.427-3.4 7.687-7.573 7.687s-7.573-3.26-7.573-7.687c0-4.453 3.4-7.687 7.573-7.687s7.573 3.227 7.573 7.687zM54.853 17.413c0-2.767-1.973-4.66-4.26-4.66s-4.26 1.893-4.26 4.66c0 2.74 1.973 4.66 4.26 4.66s4.26-1.927 4.26-4.66zM74.727 10.193v13.8c0 5.68-3.347 8.007-7.307 8.007-3.727 0-5.967-2.507-6.813-4.54l2.94-1.22c0.527 1.253 1.807 2.733 3.873 2.733 2.533 0 4.107-1.573 4.107-4.513v-1.107h-0.12c-0.76 0.933-2.213 1.747-4.047 1.747-3.84 0-7.367-3.347-7.367-7.66 0-4.34 3.52-7.713 7.367-7.713 1.833 0 3.287 0.813 4.047 1.72h0.12v-1.253h3.2zM71.76 17.44c0-2.707-1.807-4.687-4.107-4.687-2.327 0-4.28 1.98-4.28 4.687 0 2.68 1.953 4.627 4.28 4.627 2.3 0.007 4.107-1.947 4.107-4.627zM80.647 2.040v22.593h-3.38v-22.593h3.38zM93.927 19.947l2.62 1.747c-0.847 1.253-2.88 3.407-6.407 3.407-4.367 0-7.52-3.38-7.52-7.687 0-4.573 3.18-7.687 7.14-7.687 3.987 0 5.94 3.173 6.58 4.893l0.347 0.873-10.28 4.253c0.787 1.54 2.007 2.327 3.727 2.327 1.727 0 2.92-0.847 3.793-2.127zM85.86 17.18l6.873-2.853c-0.38-0.96-1.513-1.633-2.853-1.633-1.72 0-4.107 1.513-4.020 4.487z"></path>
</symbol>
<symbol id="icon-g-normal" viewBox="0 0 31 32">
<path fill="#4285f4" style="fill: var(--color1, #4285f4)" d="M31.254 16.299c0-1.311-0.106-2.268-0.337-3.26h-14.971v5.917h8.787c-0.177 1.471-1.134 3.685-3.26 5.173l-0.030 0.198 4.733 3.667 0.328 0.033c3.012-2.782 4.748-6.874 4.748-11.729z"></path>
<path fill="#34a853" style="fill: var(--color2, #34a853)" d="M15.947 31.89c4.305 0 7.919-1.417 10.559-3.862l-5.032-3.898c-1.346 0.939-3.154 1.595-5.528 1.595-4.217 0-7.795-2.781-9.071-6.626l-0.187 0.016-4.922 3.809-0.064 0.179c2.622 5.209 8.008 8.788 14.244 8.788z"></path>
<path fill="#fbbc05" style="fill: var(--color3, #fbbc05)" d="M6.876 19.099c-0.337-0.992-0.531-2.055-0.531-3.154s0.195-2.161 0.514-3.154l-0.009-0.211-4.984-3.87-0.163 0.078c-1.081 2.161-1.701 4.589-1.701 7.158s0.62 4.996 1.701 7.157l5.173-4.004z"></path>
<path fill="#eb4335" style="fill: var(--color4, #eb4335)" d="M15.947 6.165c2.994 0 5.014 1.293 6.165 2.374l4.5-4.394c-2.764-2.569-6.36-4.146-10.665-4.146-6.236 0-11.622 3.579-14.244 8.787l5.156 4.004c1.293-3.845 4.872-6.626 9.089-6.626z"></path>
</symbol>
</svg>